<mxfile host="app.diagrams.net" agent="Mozilla/5.0 (Windows NT 10.0; Win64; x64) AppleWebKit/537.36 (KHTML, like Gecko) Chrome/135.0.0.0 Safari/537.36 OPR/120.0.0.0" version="28.1.1">
  <diagram name="PÃ¡gina-1" id="zAkxzjznJY1wmlgtZ-2-">
    <mxGraphModel dx="1125" dy="687" grid="1" gridSize="10" guides="1" tooltips="1" connect="1" arrows="1" fold="1" page="1" pageScale="1" pageWidth="827" pageHeight="1169" math="0" shadow="0">
      <root>
        <mxCell id="0" />
        <mxCell id="1" parent="0" />
        <mxCell id="1GePmQHOOxn6Tvm3g8PH-5" value="Pessoa" style="swimlane;fontStyle=0;childLayout=stackLayout;horizontal=1;startSize=30;fillColor=none;horizontalStack=0;resizeParent=1;resizeParentMax=0;resizeLast=0;collapsible=1;marginBottom=0;whiteSpace=wrap;html=1;" vertex="1" parent="1">
          <mxGeometry x="80" y="200" width="140" height="134" as="geometry" />
        </mxCell>
        <mxCell id="1GePmQHOOxn6Tvm3g8PH-6" value="id: int" style="text;strokeColor=none;fillColor=none;align=left;verticalAlign=top;spacingLeft=4;spacingRight=4;overflow=hidden;rotatable=0;points=[[0,0.5],[1,0.5]];portConstraint=eastwest;whiteSpace=wrap;html=1;" vertex="1" parent="1GePmQHOOxn6Tvm3g8PH-5">
          <mxGeometry y="30" width="140" height="26" as="geometry" />
        </mxCell>
        <mxCell id="1GePmQHOOxn6Tvm3g8PH-7" value="nome: string" style="text;strokeColor=none;fillColor=none;align=left;verticalAlign=top;spacingLeft=4;spacingRight=4;overflow=hidden;rotatable=0;points=[[0,0.5],[1,0.5]];portConstraint=eastwest;whiteSpace=wrap;html=1;" vertex="1" parent="1GePmQHOOxn6Tvm3g8PH-5">
          <mxGeometry y="56" width="140" height="26" as="geometry" />
        </mxCell>
        <mxCell id="1GePmQHOOxn6Tvm3g8PH-8" value="emial: string" style="text;strokeColor=none;fillColor=none;align=left;verticalAlign=top;spacingLeft=4;spacingRight=4;overflow=hidden;rotatable=0;points=[[0,0.5],[1,0.5]];portConstraint=eastwest;whiteSpace=wrap;html=1;" vertex="1" parent="1GePmQHOOxn6Tvm3g8PH-5">
          <mxGeometry y="82" width="140" height="26" as="geometry" />
        </mxCell>
        <mxCell id="1GePmQHOOxn6Tvm3g8PH-9" value="senha: string" style="text;strokeColor=none;fillColor=none;align=left;verticalAlign=top;spacingLeft=4;spacingRight=4;overflow=hidden;rotatable=0;points=[[0,0.5],[1,0.5]];portConstraint=eastwest;whiteSpace=wrap;html=1;" vertex="1" parent="1GePmQHOOxn6Tvm3g8PH-5">
          <mxGeometry y="108" width="140" height="26" as="geometry" />
        </mxCell>
        <mxCell id="1GePmQHOOxn6Tvm3g8PH-12" value="Usuario" style="swimlane;fontStyle=1;align=center;verticalAlign=top;childLayout=stackLayout;horizontal=1;startSize=26;horizontalStack=0;resizeParent=1;resizeParentMax=0;resizeLast=0;collapsible=1;marginBottom=0;whiteSpace=wrap;html=1;" vertex="1" parent="1">
          <mxGeometry x="310" y="224" width="160" height="90" as="geometry" />
        </mxCell>
        <mxCell id="1GePmQHOOxn6Tvm3g8PH-14" value="" style="line;strokeWidth=1;fillColor=none;align=left;verticalAlign=middle;spacingTop=-1;spacingLeft=3;spacingRight=3;rotatable=0;labelPosition=right;points=[];portConstraint=eastwest;strokeColor=inherit;" vertex="1" parent="1GePmQHOOxn6Tvm3g8PH-12">
          <mxGeometry y="26" width="160" height="64" as="geometry" />
        </mxCell>
        <mxCell id="1GePmQHOOxn6Tvm3g8PH-16" value="" style="endArrow=none;html=1;rounded=0;fontSize=12;startSize=8;endSize=8;curved=1;" edge="1" parent="1" source="1GePmQHOOxn6Tvm3g8PH-5" target="1GePmQHOOxn6Tvm3g8PH-12">
          <mxGeometry width="50" height="50" relative="1" as="geometry">
            <mxPoint x="230" y="380" as="sourcePoint" />
            <mxPoint x="280" y="330" as="targetPoint" />
          </mxGeometry>
        </mxCell>
        <mxCell id="1GePmQHOOxn6Tvm3g8PH-17" value="Usuario" style="swimlane;fontStyle=1;align=center;verticalAlign=top;childLayout=stackLayout;horizontal=1;startSize=26;horizontalStack=0;resizeParent=1;resizeParentMax=0;resizeLast=0;collapsible=1;marginBottom=0;whiteSpace=wrap;html=1;" vertex="1" parent="1">
          <mxGeometry x="10" y="410" width="130" height="90" as="geometry" />
        </mxCell>
        <mxCell id="1GePmQHOOxn6Tvm3g8PH-18" value="" style="line;strokeWidth=1;fillColor=none;align=left;verticalAlign=middle;spacingTop=-1;spacingLeft=3;spacingRight=3;rotatable=0;labelPosition=right;points=[];portConstraint=eastwest;strokeColor=inherit;" vertex="1" parent="1GePmQHOOxn6Tvm3g8PH-17">
          <mxGeometry y="26" width="130" height="64" as="geometry" />
        </mxCell>
        <mxCell id="1GePmQHOOxn6Tvm3g8PH-19" value="Admin" style="swimlane;fontStyle=1;align=center;verticalAlign=top;childLayout=stackLayout;horizontal=1;startSize=26;horizontalStack=0;resizeParent=1;resizeParentMax=0;resizeLast=0;collapsible=1;marginBottom=0;whiteSpace=wrap;html=1;" vertex="1" parent="1">
          <mxGeometry x="160" y="410" width="130" height="90" as="geometry" />
        </mxCell>
        <mxCell id="1GePmQHOOxn6Tvm3g8PH-20" value="" style="line;strokeWidth=1;fillColor=none;align=left;verticalAlign=middle;spacingTop=-1;spacingLeft=3;spacingRight=3;rotatable=0;labelPosition=right;points=[];portConstraint=eastwest;strokeColor=inherit;" vertex="1" parent="1GePmQHOOxn6Tvm3g8PH-19">
          <mxGeometry y="26" width="130" height="64" as="geometry" />
        </mxCell>
        <mxCell id="1GePmQHOOxn6Tvm3g8PH-21" value="" style="endArrow=none;html=1;rounded=0;fontSize=12;startSize=8;endSize=8;curved=1;" edge="1" parent="1" target="1GePmQHOOxn6Tvm3g8PH-19">
          <mxGeometry width="50" height="50" relative="1" as="geometry">
            <mxPoint x="230" y="500" as="sourcePoint" />
            <mxPoint x="280" y="450" as="targetPoint" />
          </mxGeometry>
        </mxCell>
        <mxCell id="1GePmQHOOxn6Tvm3g8PH-22" value="" style="endArrow=none;html=1;rounded=0;fontSize=12;startSize=8;endSize=8;curved=1;entryX=0.5;entryY=0;entryDx=0;entryDy=0;" edge="1" parent="1" target="1GePmQHOOxn6Tvm3g8PH-19">
          <mxGeometry width="50" height="50" relative="1" as="geometry">
            <mxPoint x="225" y="370" as="sourcePoint" />
            <mxPoint x="280" y="430" as="targetPoint" />
          </mxGeometry>
        </mxCell>
        <mxCell id="1GePmQHOOxn6Tvm3g8PH-23" value="" style="endArrow=none;html=1;rounded=0;fontSize=12;startSize=8;endSize=8;curved=1;entryX=0.5;entryY=0;entryDx=0;entryDy=0;" edge="1" parent="1" target="1GePmQHOOxn6Tvm3g8PH-17">
          <mxGeometry width="50" height="50" relative="1" as="geometry">
            <mxPoint x="75" y="370" as="sourcePoint" />
            <mxPoint x="100" y="420" as="targetPoint" />
          </mxGeometry>
        </mxCell>
        <mxCell id="1GePmQHOOxn6Tvm3g8PH-24" value="" style="endArrow=none;html=1;rounded=0;fontSize=12;startSize=8;endSize=8;curved=1;" edge="1" parent="1">
          <mxGeometry width="50" height="50" relative="1" as="geometry">
            <mxPoint x="70" y="370" as="sourcePoint" />
            <mxPoint x="230" y="370" as="targetPoint" />
          </mxGeometry>
        </mxCell>
        <mxCell id="1GePmQHOOxn6Tvm3g8PH-67" style="edgeStyle=none;curved=1;rounded=0;orthogonalLoop=1;jettySize=auto;html=1;exitX=1;exitY=0.5;exitDx=0;exitDy=0;fontSize=12;startSize=8;endSize=8;" edge="1" parent="1" source="1GePmQHOOxn6Tvm3g8PH-25" target="1GePmQHOOxn6Tvm3g8PH-5">
          <mxGeometry relative="1" as="geometry" />
        </mxCell>
        <mxCell id="1GePmQHOOxn6Tvm3g8PH-25" value="" style="triangle;whiteSpace=wrap;html=1;direction=north;" vertex="1" parent="1">
          <mxGeometry x="140" y="334" width="20" height="20" as="geometry" />
        </mxCell>
        <mxCell id="1GePmQHOOxn6Tvm3g8PH-26" value="" style="endArrow=none;html=1;rounded=0;fontSize=12;startSize=8;endSize=8;curved=1;entryX=0;entryY=0.5;entryDx=0;entryDy=0;" edge="1" parent="1" target="1GePmQHOOxn6Tvm3g8PH-25">
          <mxGeometry width="50" height="50" relative="1" as="geometry">
            <mxPoint x="150" y="370" as="sourcePoint" />
            <mxPoint x="300" y="360" as="targetPoint" />
          </mxGeometry>
        </mxCell>
        <mxCell id="1GePmQHOOxn6Tvm3g8PH-27" value="Pessoa" style="swimlane;fontStyle=0;childLayout=stackLayout;horizontal=1;startSize=30;fillColor=none;horizontalStack=0;resizeParent=1;resizeParentMax=0;resizeLast=0;collapsible=1;marginBottom=0;whiteSpace=wrap;html=1;" vertex="1" parent="1">
          <mxGeometry x="320" y="380" width="140" height="160" as="geometry" />
        </mxCell>
        <mxCell id="1GePmQHOOxn6Tvm3g8PH-28" value="id: int" style="text;strokeColor=none;fillColor=none;align=left;verticalAlign=top;spacingLeft=4;spacingRight=4;overflow=hidden;rotatable=0;points=[[0,0.5],[1,0.5]];portConstraint=eastwest;whiteSpace=wrap;html=1;" vertex="1" parent="1GePmQHOOxn6Tvm3g8PH-27">
          <mxGeometry y="30" width="140" height="26" as="geometry" />
        </mxCell>
        <mxCell id="1GePmQHOOxn6Tvm3g8PH-29" value="nome: string" style="text;strokeColor=none;fillColor=none;align=left;verticalAlign=top;spacingLeft=4;spacingRight=4;overflow=hidden;rotatable=0;points=[[0,0.5],[1,0.5]];portConstraint=eastwest;whiteSpace=wrap;html=1;" vertex="1" parent="1GePmQHOOxn6Tvm3g8PH-27">
          <mxGeometry y="56" width="140" height="26" as="geometry" />
        </mxCell>
        <mxCell id="1GePmQHOOxn6Tvm3g8PH-30" value="preco: double" style="text;strokeColor=none;fillColor=none;align=left;verticalAlign=top;spacingLeft=4;spacingRight=4;overflow=hidden;rotatable=0;points=[[0,0.5],[1,0.5]];portConstraint=eastwest;whiteSpace=wrap;html=1;" vertex="1" parent="1GePmQHOOxn6Tvm3g8PH-27">
          <mxGeometry y="82" width="140" height="26" as="geometry" />
        </mxCell>
        <mxCell id="1GePmQHOOxn6Tvm3g8PH-31" value="datainicio: Date" style="text;strokeColor=none;fillColor=none;align=left;verticalAlign=top;spacingLeft=4;spacingRight=4;overflow=hidden;rotatable=0;points=[[0,0.5],[1,0.5]];portConstraint=eastwest;whiteSpace=wrap;html=1;" vertex="1" parent="1GePmQHOOxn6Tvm3g8PH-27">
          <mxGeometry y="108" width="140" height="26" as="geometry" />
        </mxCell>
        <mxCell id="1GePmQHOOxn6Tvm3g8PH-34" value="dataFim: Date" style="text;strokeColor=none;fillColor=none;align=left;verticalAlign=top;spacingLeft=4;spacingRight=4;overflow=hidden;rotatable=0;points=[[0,0.5],[1,0.5]];portConstraint=eastwest;whiteSpace=wrap;html=1;" vertex="1" parent="1GePmQHOOxn6Tvm3g8PH-27">
          <mxGeometry y="134" width="140" height="26" as="geometry" />
        </mxCell>
        <mxCell id="1GePmQHOOxn6Tvm3g8PH-32" value="" style="triangle;whiteSpace=wrap;html=1;direction=north;" vertex="1" parent="1">
          <mxGeometry x="380" y="370" width="20" height="10" as="geometry" />
        </mxCell>
        <mxCell id="1GePmQHOOxn6Tvm3g8PH-33" value="" style="endArrow=none;html=1;rounded=0;fontSize=12;startSize=8;endSize=8;curved=1;entryX=1;entryY=0.5;entryDx=0;entryDy=0;" edge="1" parent="1" source="1GePmQHOOxn6Tvm3g8PH-12" target="1GePmQHOOxn6Tvm3g8PH-32">
          <mxGeometry width="50" height="50" relative="1" as="geometry">
            <mxPoint x="250" y="340" as="sourcePoint" />
            <mxPoint x="300" y="290" as="targetPoint" />
          </mxGeometry>
        </mxCell>
        <mxCell id="1GePmQHOOxn6Tvm3g8PH-35" value="Pessoa" style="swimlane;fontStyle=0;childLayout=stackLayout;horizontal=1;startSize=30;fillColor=none;horizontalStack=0;resizeParent=1;resizeParentMax=0;resizeLast=0;collapsible=1;marginBottom=0;whiteSpace=wrap;html=1;" vertex="1" parent="1">
          <mxGeometry x="530" y="380" width="140" height="160" as="geometry" />
        </mxCell>
        <mxCell id="1GePmQHOOxn6Tvm3g8PH-36" value="id: int" style="text;strokeColor=none;fillColor=none;align=left;verticalAlign=top;spacingLeft=4;spacingRight=4;overflow=hidden;rotatable=0;points=[[0,0.5],[1,0.5]];portConstraint=eastwest;whiteSpace=wrap;html=1;" vertex="1" parent="1GePmQHOOxn6Tvm3g8PH-35">
          <mxGeometry y="30" width="140" height="26" as="geometry" />
        </mxCell>
        <mxCell id="1GePmQHOOxn6Tvm3g8PH-37" value="nome: string" style="text;strokeColor=none;fillColor=none;align=left;verticalAlign=top;spacingLeft=4;spacingRight=4;overflow=hidden;rotatable=0;points=[[0,0.5],[1,0.5]];portConstraint=eastwest;whiteSpace=wrap;html=1;" vertex="1" parent="1GePmQHOOxn6Tvm3g8PH-35">
          <mxGeometry y="56" width="140" height="26" as="geometry" />
        </mxCell>
        <mxCell id="1GePmQHOOxn6Tvm3g8PH-38" value="preco: double" style="text;strokeColor=none;fillColor=none;align=left;verticalAlign=top;spacingLeft=4;spacingRight=4;overflow=hidden;rotatable=0;points=[[0,0.5],[1,0.5]];portConstraint=eastwest;whiteSpace=wrap;html=1;" vertex="1" parent="1GePmQHOOxn6Tvm3g8PH-35">
          <mxGeometry y="82" width="140" height="26" as="geometry" />
        </mxCell>
        <mxCell id="1GePmQHOOxn6Tvm3g8PH-39" value="datainicio: Date" style="text;strokeColor=none;fillColor=none;align=left;verticalAlign=top;spacingLeft=4;spacingRight=4;overflow=hidden;rotatable=0;points=[[0,0.5],[1,0.5]];portConstraint=eastwest;whiteSpace=wrap;html=1;" vertex="1" parent="1GePmQHOOxn6Tvm3g8PH-35">
          <mxGeometry y="108" width="140" height="26" as="geometry" />
        </mxCell>
        <mxCell id="1GePmQHOOxn6Tvm3g8PH-40" value="dataFim: Date" style="text;strokeColor=none;fillColor=none;align=left;verticalAlign=top;spacingLeft=4;spacingRight=4;overflow=hidden;rotatable=0;points=[[0,0.5],[1,0.5]];portConstraint=eastwest;whiteSpace=wrap;html=1;" vertex="1" parent="1GePmQHOOxn6Tvm3g8PH-35">
          <mxGeometry y="134" width="140" height="26" as="geometry" />
        </mxCell>
        <mxCell id="1GePmQHOOxn6Tvm3g8PH-41" value="" style="endArrow=diamondThin;endFill=1;endSize=24;html=1;rounded=0;fontSize=12;curved=1;exitX=-0.004;exitY=0.08;exitDx=0;exitDy=0;exitPerimeter=0;" edge="1" parent="1" source="1GePmQHOOxn6Tvm3g8PH-35">
          <mxGeometry width="160" relative="1" as="geometry">
            <mxPoint x="480" y="450" as="sourcePoint" />
            <mxPoint x="460" y="392" as="targetPoint" />
          </mxGeometry>
        </mxCell>
        <mxCell id="1GePmQHOOxn6Tvm3g8PH-42" value="1.1" style="text;html=1;align=center;verticalAlign=middle;whiteSpace=wrap;rounded=0;" vertex="1" parent="1">
          <mxGeometry x="480" y="400" width="60" height="30" as="geometry" />
        </mxCell>
        <mxCell id="1GePmQHOOxn6Tvm3g8PH-43" value="Foto" style="swimlane;fontStyle=0;childLayout=stackLayout;horizontal=1;startSize=30;fillColor=none;horizontalStack=0;resizeParent=1;resizeParentMax=0;resizeLast=0;collapsible=1;marginBottom=0;whiteSpace=wrap;html=1;" vertex="1" parent="1">
          <mxGeometry x="550" y="610" width="120" height="108" as="geometry" />
        </mxCell>
        <mxCell id="1GePmQHOOxn6Tvm3g8PH-44" value="id: int" style="text;strokeColor=none;fillColor=none;align=left;verticalAlign=top;spacingLeft=4;spacingRight=4;overflow=hidden;rotatable=0;points=[[0,0.5],[1,0.5]];portConstraint=eastwest;whiteSpace=wrap;html=1;" vertex="1" parent="1GePmQHOOxn6Tvm3g8PH-43">
          <mxGeometry y="30" width="120" height="26" as="geometry" />
        </mxCell>
        <mxCell id="1GePmQHOOxn6Tvm3g8PH-45" value="url: string" style="text;strokeColor=none;fillColor=none;align=left;verticalAlign=top;spacingLeft=4;spacingRight=4;overflow=hidden;rotatable=0;points=[[0,0.5],[1,0.5]];portConstraint=eastwest;whiteSpace=wrap;html=1;" vertex="1" parent="1GePmQHOOxn6Tvm3g8PH-43">
          <mxGeometry y="56" width="120" height="26" as="geometry" />
        </mxCell>
        <mxCell id="1GePmQHOOxn6Tvm3g8PH-46" value="descricao: string" style="text;strokeColor=none;fillColor=none;align=left;verticalAlign=top;spacingLeft=4;spacingRight=4;overflow=hidden;rotatable=0;points=[[0,0.5],[1,0.5]];portConstraint=eastwest;whiteSpace=wrap;html=1;" vertex="1" parent="1GePmQHOOxn6Tvm3g8PH-43">
          <mxGeometry y="82" width="120" height="26" as="geometry" />
        </mxCell>
        <mxCell id="1GePmQHOOxn6Tvm3g8PH-48" value="" style="endArrow=none;html=1;rounded=0;fontSize=12;startSize=8;endSize=8;curved=1;exitX=0.322;exitY=-0.012;exitDx=0;exitDy=0;exitPerimeter=0;" edge="1" parent="1" source="1GePmQHOOxn6Tvm3g8PH-43" target="1GePmQHOOxn6Tvm3g8PH-35">
          <mxGeometry width="50" height="50" relative="1" as="geometry">
            <mxPoint x="550" y="610" as="sourcePoint" />
            <mxPoint x="570" y="540" as="targetPoint" />
          </mxGeometry>
        </mxCell>
        <mxCell id="1GePmQHOOxn6Tvm3g8PH-49" value="Foto" style="swimlane;fontStyle=0;childLayout=stackLayout;horizontal=1;startSize=20;fillColor=none;horizontalStack=0;resizeParent=1;resizeParentMax=0;resizeLast=0;collapsible=1;marginBottom=0;whiteSpace=wrap;html=1;" vertex="1" parent="1">
          <mxGeometry x="420" y="610.5" width="100" height="98" as="geometry" />
        </mxCell>
        <mxCell id="1GePmQHOOxn6Tvm3g8PH-50" value="id: int" style="text;strokeColor=none;fillColor=none;align=left;verticalAlign=top;spacingLeft=4;spacingRight=4;overflow=hidden;rotatable=0;points=[[0,0.5],[1,0.5]];portConstraint=eastwest;whiteSpace=wrap;html=1;" vertex="1" parent="1GePmQHOOxn6Tvm3g8PH-49">
          <mxGeometry y="20" width="100" height="26" as="geometry" />
        </mxCell>
        <mxCell id="1GePmQHOOxn6Tvm3g8PH-51" value="url: string" style="text;strokeColor=none;fillColor=none;align=left;verticalAlign=top;spacingLeft=4;spacingRight=4;overflow=hidden;rotatable=0;points=[[0,0.5],[1,0.5]];portConstraint=eastwest;whiteSpace=wrap;html=1;" vertex="1" parent="1GePmQHOOxn6Tvm3g8PH-49">
          <mxGeometry y="46" width="100" height="26" as="geometry" />
        </mxCell>
        <mxCell id="1GePmQHOOxn6Tvm3g8PH-52" value="descricao: string" style="text;strokeColor=none;fillColor=none;align=left;verticalAlign=top;spacingLeft=4;spacingRight=4;overflow=hidden;rotatable=0;points=[[0,0.5],[1,0.5]];portConstraint=eastwest;whiteSpace=wrap;html=1;" vertex="1" parent="1GePmQHOOxn6Tvm3g8PH-49">
          <mxGeometry y="72" width="100" height="26" as="geometry" />
        </mxCell>
        <mxCell id="1GePmQHOOxn6Tvm3g8PH-53" value="Avaliacao" style="swimlane;fontStyle=0;childLayout=stackLayout;horizontal=1;startSize=20;fillColor=none;horizontalStack=0;resizeParent=1;resizeParentMax=0;resizeLast=0;collapsible=1;marginBottom=0;whiteSpace=wrap;html=1;" vertex="1" parent="1">
          <mxGeometry x="290" y="610.5" width="120" height="124" as="geometry" />
        </mxCell>
        <mxCell id="1GePmQHOOxn6Tvm3g8PH-54" value="id: int" style="text;strokeColor=none;fillColor=none;align=left;verticalAlign=top;spacingLeft=4;spacingRight=4;overflow=hidden;rotatable=0;points=[[0,0.5],[1,0.5]];portConstraint=eastwest;whiteSpace=wrap;html=1;" vertex="1" parent="1GePmQHOOxn6Tvm3g8PH-53">
          <mxGeometry y="20" width="120" height="26" as="geometry" />
        </mxCell>
        <mxCell id="1GePmQHOOxn6Tvm3g8PH-55" value="nota: int" style="text;strokeColor=none;fillColor=none;align=left;verticalAlign=top;spacingLeft=4;spacingRight=4;overflow=hidden;rotatable=0;points=[[0,0.5],[1,0.5]];portConstraint=eastwest;whiteSpace=wrap;html=1;" vertex="1" parent="1GePmQHOOxn6Tvm3g8PH-53">
          <mxGeometry y="46" width="120" height="26" as="geometry" />
        </mxCell>
        <mxCell id="1GePmQHOOxn6Tvm3g8PH-56" value="formapage: string" style="text;strokeColor=none;fillColor=none;align=left;verticalAlign=top;spacingLeft=4;spacingRight=4;overflow=hidden;rotatable=0;points=[[0,0.5],[1,0.5]];portConstraint=eastwest;whiteSpace=wrap;html=1;" vertex="1" parent="1GePmQHOOxn6Tvm3g8PH-53">
          <mxGeometry y="72" width="120" height="26" as="geometry" />
        </mxCell>
        <mxCell id="1GePmQHOOxn6Tvm3g8PH-57" value="status: string" style="text;strokeColor=none;fillColor=none;align=left;verticalAlign=top;spacingLeft=4;spacingRight=4;overflow=hidden;rotatable=0;points=[[0,0.5],[1,0.5]];portConstraint=eastwest;whiteSpace=wrap;html=1;" vertex="1" parent="1GePmQHOOxn6Tvm3g8PH-53">
          <mxGeometry y="98" width="120" height="26" as="geometry" />
        </mxCell>
        <mxCell id="1GePmQHOOxn6Tvm3g8PH-58" value="Pagamento" style="swimlane;fontStyle=0;childLayout=stackLayout;horizontal=1;startSize=20;fillColor=none;horizontalStack=0;resizeParent=1;resizeParentMax=0;resizeLast=0;collapsible=1;marginBottom=0;whiteSpace=wrap;html=1;" vertex="1" parent="1">
          <mxGeometry x="150" y="610.5" width="120" height="124" as="geometry" />
        </mxCell>
        <mxCell id="1GePmQHOOxn6Tvm3g8PH-59" value="id: int" style="text;strokeColor=none;fillColor=none;align=left;verticalAlign=top;spacingLeft=4;spacingRight=4;overflow=hidden;rotatable=0;points=[[0,0.5],[1,0.5]];portConstraint=eastwest;whiteSpace=wrap;html=1;" vertex="1" parent="1GePmQHOOxn6Tvm3g8PH-58">
          <mxGeometry y="20" width="120" height="26" as="geometry" />
        </mxCell>
        <mxCell id="1GePmQHOOxn6Tvm3g8PH-60" value="valor: double" style="text;strokeColor=none;fillColor=none;align=left;verticalAlign=top;spacingLeft=4;spacingRight=4;overflow=hidden;rotatable=0;points=[[0,0.5],[1,0.5]];portConstraint=eastwest;whiteSpace=wrap;html=1;" vertex="1" parent="1GePmQHOOxn6Tvm3g8PH-58">
          <mxGeometry y="46" width="120" height="26" as="geometry" />
        </mxCell>
        <mxCell id="1GePmQHOOxn6Tvm3g8PH-61" value="formapage: string" style="text;strokeColor=none;fillColor=none;align=left;verticalAlign=top;spacingLeft=4;spacingRight=4;overflow=hidden;rotatable=0;points=[[0,0.5],[1,0.5]];portConstraint=eastwest;whiteSpace=wrap;html=1;" vertex="1" parent="1GePmQHOOxn6Tvm3g8PH-58">
          <mxGeometry y="72" width="120" height="26" as="geometry" />
        </mxCell>
        <mxCell id="1GePmQHOOxn6Tvm3g8PH-62" value="status: string" style="text;strokeColor=none;fillColor=none;align=left;verticalAlign=top;spacingLeft=4;spacingRight=4;overflow=hidden;rotatable=0;points=[[0,0.5],[1,0.5]];portConstraint=eastwest;whiteSpace=wrap;html=1;" vertex="1" parent="1GePmQHOOxn6Tvm3g8PH-58">
          <mxGeometry y="98" width="120" height="26" as="geometry" />
        </mxCell>
        <mxCell id="1GePmQHOOxn6Tvm3g8PH-63" value="Reserva" style="swimlane;fontStyle=0;childLayout=stackLayout;horizontal=1;startSize=20;fillColor=none;horizontalStack=0;resizeParent=1;resizeParentMax=0;resizeLast=0;collapsible=1;marginBottom=0;whiteSpace=wrap;html=1;" vertex="1" parent="1">
          <mxGeometry y="610" width="120" height="72" as="geometry" />
        </mxCell>
        <mxCell id="1GePmQHOOxn6Tvm3g8PH-64" value="id: int" style="text;strokeColor=none;fillColor=none;align=left;verticalAlign=top;spacingLeft=4;spacingRight=4;overflow=hidden;rotatable=0;points=[[0,0.5],[1,0.5]];portConstraint=eastwest;whiteSpace=wrap;html=1;" vertex="1" parent="1GePmQHOOxn6Tvm3g8PH-63">
          <mxGeometry y="20" width="120" height="26" as="geometry" />
        </mxCell>
        <mxCell id="1GePmQHOOxn6Tvm3g8PH-65" value="dataReserva: Date" style="text;strokeColor=none;fillColor=none;align=left;verticalAlign=top;spacingLeft=4;spacingRight=4;overflow=hidden;rotatable=0;points=[[0,0.5],[1,0.5]];portConstraint=eastwest;whiteSpace=wrap;html=1;" vertex="1" parent="1GePmQHOOxn6Tvm3g8PH-63">
          <mxGeometry y="46" width="120" height="26" as="geometry" />
        </mxCell>
        <mxCell id="1GePmQHOOxn6Tvm3g8PH-69" value="" style="shape=partialRectangle;whiteSpace=wrap;html=1;bottom=0;right=0;fillColor=none;" vertex="1" parent="1">
          <mxGeometry x="200" y="570.5" width="180" height="40" as="geometry" />
        </mxCell>
        <mxCell id="1GePmQHOOxn6Tvm3g8PH-72" value="" style="endArrow=none;html=1;rounded=0;fontSize=12;startSize=8;endSize=8;curved=1;entryX=0.5;entryY=0;entryDx=0;entryDy=0;" edge="1" parent="1" target="1GePmQHOOxn6Tvm3g8PH-49">
          <mxGeometry width="50" height="50" relative="1" as="geometry">
            <mxPoint x="470" y="570.5" as="sourcePoint" />
            <mxPoint x="370" y="650.5" as="targetPoint" />
          </mxGeometry>
        </mxCell>
        <mxCell id="1GePmQHOOxn6Tvm3g8PH-73" value="" style="endArrow=none;html=1;rounded=0;fontSize=12;startSize=8;endSize=8;curved=1;" edge="1" parent="1">
          <mxGeometry width="50" height="50" relative="1" as="geometry">
            <mxPoint x="470" y="570.5" as="sourcePoint" />
            <mxPoint x="380" y="570.5" as="targetPoint" />
          </mxGeometry>
        </mxCell>
        <mxCell id="1GePmQHOOxn6Tvm3g8PH-75" value="" style="endArrow=none;html=1;rounded=0;fontSize=12;startSize=8;endSize=8;curved=1;entryX=0.75;entryY=0;entryDx=0;entryDy=0;exitX=1;exitY=0;exitDx=0;exitDy=0;" edge="1" parent="1" source="1GePmQHOOxn6Tvm3g8PH-69" target="1GePmQHOOxn6Tvm3g8PH-53">
          <mxGeometry width="50" height="50" relative="1" as="geometry">
            <mxPoint x="320" y="700.5" as="sourcePoint" />
            <mxPoint x="370" y="650.5" as="targetPoint" />
          </mxGeometry>
        </mxCell>
        <mxCell id="1GePmQHOOxn6Tvm3g8PH-77" value="" style="endArrow=diamondThin;endFill=1;endSize=24;html=1;rounded=0;fontSize=12;curved=1;exitX=0.331;exitY=-0.072;exitDx=0;exitDy=0;exitPerimeter=0;" edge="1" parent="1">
          <mxGeometry width="160" relative="1" as="geometry">
            <mxPoint x="380.00000000000006" y="585.3399999999999" as="sourcePoint" />
            <mxPoint x="380.42" y="557.5" as="targetPoint" />
          </mxGeometry>
        </mxCell>
        <mxCell id="1GePmQHOOxn6Tvm3g8PH-78" value="" style="endArrow=none;html=1;rounded=0;fontSize=12;startSize=8;endSize=8;curved=1;" edge="1" parent="1">
          <mxGeometry width="50" height="50" relative="1" as="geometry">
            <mxPoint x="380" y="570" as="sourcePoint" />
            <mxPoint x="380" y="540" as="targetPoint" />
          </mxGeometry>
        </mxCell>
      </root>
    </mxGraphModel>
  </diagram>
</mxfile>
